<!-- Generated by IcoMoon.io -->
<svg version="1.1" xmlns="http://www.w3.org/2000/svg" width="24" height="24" viewBox="0 0 24 24">
<title>calendar</title>
<path fill="#6e7788" d="M21.2 3.8h-4.2v-1.6c0-0.1-0.1-0.2-0.2-0.2h-1.4c-0.1 0-0.2 0.1-0.2 0.2v1.6h-6.4v-1.6c0-0.1-0.1-0.2-0.2-0.2h-1.4c-0.1 0-0.2 0.1-0.2 0.2v1.6h-4.2c-0.4 0-0.8 0.4-0.8 0.8v16.6c0 0.4 0.4 0.8 0.8 0.8h18.4c0.4 0 0.8-0.4 0.8-0.8v-16.6c0-0.4-0.4-0.8-0.8-0.8zM20.2 20.2h-16.4v-9.5h16.4v9.5zM3.8 9v-3.4h3.2v1.2c0 0.1 0.1 0.2 0.2 0.2h1.4c0.1 0 0.2-0.1 0.2-0.2v-1.2h6.4v1.2c0 0.1 0.1 0.2 0.2 0.2h1.4c0.1 0 0.2-0.1 0.2-0.2v-1.2h3.2v3.4h-16.4z"></path>
</svg>
